<mxfile host="app.diagrams.net" modified="2021-01-09T14:03:16.764Z" agent="5.0 (X11; Linux x86_64) AppleWebKit/537.36 (KHTML, like Gecko) Chrome/87.0.4280.88 Safari/537.36" etag="JFOMfOSN6mA5BtESmAe4" version="14.1.9" type="github">
  <diagram id="wSRiVS2MMhmPtro4fjN7" name="Page-1">
    <mxGraphModel dx="744" dy="401" grid="1" gridSize="10" guides="1" tooltips="1" connect="1" arrows="1" fold="1" page="1" pageScale="1" pageWidth="850" pageHeight="1100" math="0" shadow="0">
      <root>
        <mxCell id="0" />
        <mxCell id="1" parent="0" />
        <mxCell id="bdeG100dR7esm7EysbhM-1" value="Requirement" style="rounded=0;whiteSpace=wrap;html=1;" vertex="1" parent="1">
          <mxGeometry x="120" y="191" width="120" height="30" as="geometry" />
        </mxCell>
        <mxCell id="bdeG100dR7esm7EysbhM-2" value="Analysis" style="rounded=0;whiteSpace=wrap;html=1;" vertex="1" parent="1">
          <mxGeometry x="120" y="248" width="120" height="30" as="geometry" />
        </mxCell>
        <mxCell id="bdeG100dR7esm7EysbhM-3" value="Design" style="rounded=0;whiteSpace=wrap;html=1;" vertex="1" parent="1">
          <mxGeometry x="120" y="300" width="120" height="30" as="geometry" />
        </mxCell>
        <mxCell id="bdeG100dR7esm7EysbhM-4" value="Testing" style="rounded=0;whiteSpace=wrap;html=1;" vertex="1" parent="1">
          <mxGeometry x="120" y="400" width="120" height="30" as="geometry" />
        </mxCell>
        <mxCell id="bdeG100dR7esm7EysbhM-5" value="Review" style="rounded=0;whiteSpace=wrap;html=1;" vertex="1" parent="1">
          <mxGeometry x="120" y="500" width="120" height="30" as="geometry" />
        </mxCell>
        <mxCell id="bdeG100dR7esm7EysbhM-6" value="Implementation" style="rounded=0;whiteSpace=wrap;html=1;" vertex="1" parent="1">
          <mxGeometry x="120" y="450" width="120" height="30" as="geometry" />
        </mxCell>
        <mxCell id="bdeG100dR7esm7EysbhM-8" value="Development" style="rounded=0;whiteSpace=wrap;html=1;" vertex="1" parent="1">
          <mxGeometry x="120" y="350" width="120" height="30" as="geometry" />
        </mxCell>
        <mxCell id="bdeG100dR7esm7EysbhM-23" value="Deployment" style="rounded=0;whiteSpace=wrap;html=1;" vertex="1" parent="1">
          <mxGeometry x="510" y="550" width="120" height="30" as="geometry" />
        </mxCell>
        <mxCell id="bdeG100dR7esm7EysbhM-25" value="" style="endArrow=classic;html=1;exitX=1;exitY=0.5;exitDx=0;exitDy=0;entryX=0;entryY=0.5;entryDx=0;entryDy=0;" edge="1" parent="1" source="bdeG100dR7esm7EysbhM-5">
          <mxGeometry width="50" height="50" relative="1" as="geometry">
            <mxPoint x="240" y="540" as="sourcePoint" />
            <mxPoint x="320" y="315" as="targetPoint" />
            <Array as="points">
              <mxPoint x="280" y="515" />
              <mxPoint x="280" y="315" />
            </Array>
          </mxGeometry>
        </mxCell>
        <mxCell id="bdeG100dR7esm7EysbhM-26" value="" style="endArrow=classic;html=1;exitX=1;exitY=0.5;exitDx=0;exitDy=0;entryX=0;entryY=0.5;entryDx=0;entryDy=0;" edge="1" parent="1">
          <mxGeometry width="50" height="50" relative="1" as="geometry">
            <mxPoint x="440" y="515" as="sourcePoint" />
            <mxPoint x="510" y="315" as="targetPoint" />
            <Array as="points">
              <mxPoint x="480" y="515" />
              <mxPoint x="480" y="315" />
            </Array>
          </mxGeometry>
        </mxCell>
        <mxCell id="bdeG100dR7esm7EysbhM-27" value="" style="endArrow=classic;html=1;entryX=0.5;entryY=0;entryDx=0;entryDy=0;exitX=0.5;exitY=1;exitDx=0;exitDy=0;" edge="1" parent="1" source="bdeG100dR7esm7EysbhM-1" target="bdeG100dR7esm7EysbhM-2">
          <mxGeometry width="50" height="50" relative="1" as="geometry">
            <mxPoint x="170" y="260" as="sourcePoint" />
            <mxPoint x="220" y="210" as="targetPoint" />
          </mxGeometry>
        </mxCell>
        <mxCell id="bdeG100dR7esm7EysbhM-28" value="" style="endArrow=classic;html=1;entryX=0.5;entryY=0;entryDx=0;entryDy=0;exitX=0.5;exitY=1;exitDx=0;exitDy=0;" edge="1" parent="1" source="bdeG100dR7esm7EysbhM-2" target="bdeG100dR7esm7EysbhM-3">
          <mxGeometry width="50" height="50" relative="1" as="geometry">
            <mxPoint x="190" y="231" as="sourcePoint" />
            <mxPoint x="190" y="258" as="targetPoint" />
          </mxGeometry>
        </mxCell>
        <mxCell id="bdeG100dR7esm7EysbhM-29" value="" style="endArrow=classic;html=1;entryX=0.5;entryY=0;entryDx=0;entryDy=0;" edge="1" parent="1" target="bdeG100dR7esm7EysbhM-8">
          <mxGeometry width="50" height="50" relative="1" as="geometry">
            <mxPoint x="180" y="330" as="sourcePoint" />
            <mxPoint x="190" y="310" as="targetPoint" />
          </mxGeometry>
        </mxCell>
        <mxCell id="bdeG100dR7esm7EysbhM-30" value="" style="endArrow=classic;html=1;entryX=0.5;entryY=0;entryDx=0;entryDy=0;" edge="1" parent="1" target="bdeG100dR7esm7EysbhM-4">
          <mxGeometry width="50" height="50" relative="1" as="geometry">
            <mxPoint x="180" y="380" as="sourcePoint" />
            <mxPoint x="190" y="360" as="targetPoint" />
          </mxGeometry>
        </mxCell>
        <mxCell id="bdeG100dR7esm7EysbhM-31" value="" style="endArrow=classic;html=1;entryX=0.5;entryY=0;entryDx=0;entryDy=0;exitX=0.5;exitY=1;exitDx=0;exitDy=0;" edge="1" parent="1" source="bdeG100dR7esm7EysbhM-4" target="bdeG100dR7esm7EysbhM-6">
          <mxGeometry width="50" height="50" relative="1" as="geometry">
            <mxPoint x="190" y="390" as="sourcePoint" />
            <mxPoint x="190" y="410" as="targetPoint" />
          </mxGeometry>
        </mxCell>
        <mxCell id="bdeG100dR7esm7EysbhM-32" value="" style="endArrow=classic;html=1;entryX=0.5;entryY=0;entryDx=0;entryDy=0;exitX=0.5;exitY=1;exitDx=0;exitDy=0;" edge="1" parent="1" source="bdeG100dR7esm7EysbhM-6" target="bdeG100dR7esm7EysbhM-5">
          <mxGeometry width="50" height="50" relative="1" as="geometry">
            <mxPoint x="190" y="440" as="sourcePoint" />
            <mxPoint x="190" y="460" as="targetPoint" />
          </mxGeometry>
        </mxCell>
        <mxCell id="bdeG100dR7esm7EysbhM-33" value="Design" style="rounded=0;whiteSpace=wrap;html=1;" vertex="1" parent="1">
          <mxGeometry x="320" y="300" width="120" height="30" as="geometry" />
        </mxCell>
        <mxCell id="bdeG100dR7esm7EysbhM-34" value="Testing" style="rounded=0;whiteSpace=wrap;html=1;" vertex="1" parent="1">
          <mxGeometry x="320" y="400" width="120" height="30" as="geometry" />
        </mxCell>
        <mxCell id="bdeG100dR7esm7EysbhM-35" value="Review" style="rounded=0;whiteSpace=wrap;html=1;" vertex="1" parent="1">
          <mxGeometry x="320" y="500" width="120" height="30" as="geometry" />
        </mxCell>
        <mxCell id="bdeG100dR7esm7EysbhM-36" value="Implementation" style="rounded=0;whiteSpace=wrap;html=1;" vertex="1" parent="1">
          <mxGeometry x="320" y="450" width="120" height="30" as="geometry" />
        </mxCell>
        <mxCell id="bdeG100dR7esm7EysbhM-37" value="Development" style="rounded=0;whiteSpace=wrap;html=1;" vertex="1" parent="1">
          <mxGeometry x="320" y="350" width="120" height="30" as="geometry" />
        </mxCell>
        <mxCell id="bdeG100dR7esm7EysbhM-38" value="" style="endArrow=classic;html=1;entryX=0.5;entryY=0;entryDx=0;entryDy=0;" edge="1" parent="1" target="bdeG100dR7esm7EysbhM-37">
          <mxGeometry width="50" height="50" relative="1" as="geometry">
            <mxPoint x="380" y="330" as="sourcePoint" />
            <mxPoint x="390" y="310" as="targetPoint" />
          </mxGeometry>
        </mxCell>
        <mxCell id="bdeG100dR7esm7EysbhM-39" value="" style="endArrow=classic;html=1;entryX=0.5;entryY=0;entryDx=0;entryDy=0;" edge="1" parent="1" target="bdeG100dR7esm7EysbhM-34">
          <mxGeometry width="50" height="50" relative="1" as="geometry">
            <mxPoint x="380" y="380" as="sourcePoint" />
            <mxPoint x="390" y="360" as="targetPoint" />
          </mxGeometry>
        </mxCell>
        <mxCell id="bdeG100dR7esm7EysbhM-40" value="" style="endArrow=classic;html=1;entryX=0.5;entryY=0;entryDx=0;entryDy=0;exitX=0.5;exitY=1;exitDx=0;exitDy=0;" edge="1" parent="1" source="bdeG100dR7esm7EysbhM-34" target="bdeG100dR7esm7EysbhM-36">
          <mxGeometry width="50" height="50" relative="1" as="geometry">
            <mxPoint x="390" y="390" as="sourcePoint" />
            <mxPoint x="390" y="410" as="targetPoint" />
          </mxGeometry>
        </mxCell>
        <mxCell id="bdeG100dR7esm7EysbhM-41" value="" style="endArrow=classic;html=1;entryX=0.5;entryY=0;entryDx=0;entryDy=0;exitX=0.5;exitY=1;exitDx=0;exitDy=0;" edge="1" parent="1" source="bdeG100dR7esm7EysbhM-36" target="bdeG100dR7esm7EysbhM-35">
          <mxGeometry width="50" height="50" relative="1" as="geometry">
            <mxPoint x="390" y="440" as="sourcePoint" />
            <mxPoint x="390" y="460" as="targetPoint" />
          </mxGeometry>
        </mxCell>
        <mxCell id="bdeG100dR7esm7EysbhM-42" value="Design" style="rounded=0;whiteSpace=wrap;html=1;" vertex="1" parent="1">
          <mxGeometry x="510" y="300" width="120" height="30" as="geometry" />
        </mxCell>
        <mxCell id="bdeG100dR7esm7EysbhM-43" value="Testing" style="rounded=0;whiteSpace=wrap;html=1;" vertex="1" parent="1">
          <mxGeometry x="510" y="400" width="120" height="30" as="geometry" />
        </mxCell>
        <mxCell id="bdeG100dR7esm7EysbhM-44" value="Review" style="rounded=0;whiteSpace=wrap;html=1;" vertex="1" parent="1">
          <mxGeometry x="510" y="500" width="120" height="30" as="geometry" />
        </mxCell>
        <mxCell id="bdeG100dR7esm7EysbhM-45" value="Implementation" style="rounded=0;whiteSpace=wrap;html=1;" vertex="1" parent="1">
          <mxGeometry x="510" y="450" width="120" height="30" as="geometry" />
        </mxCell>
        <mxCell id="bdeG100dR7esm7EysbhM-46" value="Development" style="rounded=0;whiteSpace=wrap;html=1;" vertex="1" parent="1">
          <mxGeometry x="510" y="350" width="120" height="30" as="geometry" />
        </mxCell>
        <mxCell id="bdeG100dR7esm7EysbhM-47" value="" style="endArrow=classic;html=1;entryX=0.5;entryY=0;entryDx=0;entryDy=0;" edge="1" parent="1" target="bdeG100dR7esm7EysbhM-46">
          <mxGeometry width="50" height="50" relative="1" as="geometry">
            <mxPoint x="570" y="330" as="sourcePoint" />
            <mxPoint x="580" y="310" as="targetPoint" />
          </mxGeometry>
        </mxCell>
        <mxCell id="bdeG100dR7esm7EysbhM-48" value="" style="endArrow=classic;html=1;entryX=0.5;entryY=0;entryDx=0;entryDy=0;" edge="1" parent="1" target="bdeG100dR7esm7EysbhM-43">
          <mxGeometry width="50" height="50" relative="1" as="geometry">
            <mxPoint x="570" y="380" as="sourcePoint" />
            <mxPoint x="580" y="360" as="targetPoint" />
          </mxGeometry>
        </mxCell>
        <mxCell id="bdeG100dR7esm7EysbhM-49" value="" style="endArrow=classic;html=1;entryX=0.5;entryY=0;entryDx=0;entryDy=0;exitX=0.5;exitY=1;exitDx=0;exitDy=0;" edge="1" parent="1" source="bdeG100dR7esm7EysbhM-43" target="bdeG100dR7esm7EysbhM-45">
          <mxGeometry width="50" height="50" relative="1" as="geometry">
            <mxPoint x="580" y="390" as="sourcePoint" />
            <mxPoint x="580" y="410" as="targetPoint" />
          </mxGeometry>
        </mxCell>
        <mxCell id="bdeG100dR7esm7EysbhM-50" value="" style="endArrow=classic;html=1;entryX=0.5;entryY=0;entryDx=0;entryDy=0;exitX=0.5;exitY=1;exitDx=0;exitDy=0;" edge="1" parent="1" source="bdeG100dR7esm7EysbhM-45" target="bdeG100dR7esm7EysbhM-44">
          <mxGeometry width="50" height="50" relative="1" as="geometry">
            <mxPoint x="580" y="440" as="sourcePoint" />
            <mxPoint x="580" y="460" as="targetPoint" />
          </mxGeometry>
        </mxCell>
        <mxCell id="bdeG100dR7esm7EysbhM-51" value="" style="endArrow=classic;html=1;entryX=0.5;entryY=0;entryDx=0;entryDy=0;exitX=0.5;exitY=1;exitDx=0;exitDy=0;" edge="1" parent="1" source="bdeG100dR7esm7EysbhM-44" target="bdeG100dR7esm7EysbhM-23">
          <mxGeometry width="50" height="50" relative="1" as="geometry">
            <mxPoint x="530" y="560" as="sourcePoint" />
            <mxPoint x="580" y="510" as="targetPoint" />
          </mxGeometry>
        </mxCell>
        <mxCell id="bdeG100dR7esm7EysbhM-52" value="Iteration 2, Build version 2" style="text;html=1;strokeColor=none;fillColor=none;align=center;verticalAlign=middle;whiteSpace=wrap;rounded=0;" vertex="1" parent="1">
          <mxGeometry x="330" y="253" width="80" height="20" as="geometry" />
        </mxCell>
        <mxCell id="bdeG100dR7esm7EysbhM-53" value="Iteration 3&lt;br&gt;Build release version" style="text;html=1;strokeColor=none;fillColor=none;align=center;verticalAlign=middle;whiteSpace=wrap;rounded=0;" vertex="1" parent="1">
          <mxGeometry x="530" y="258" width="80" height="20" as="geometry" />
        </mxCell>
        <mxCell id="bdeG100dR7esm7EysbhM-54" value="Iteration 1,&lt;br&gt;Build version 1" style="text;html=1;strokeColor=none;fillColor=none;align=center;verticalAlign=middle;whiteSpace=wrap;rounded=0;" vertex="1" parent="1">
          <mxGeometry x="140" y="160" width="90" height="20" as="geometry" />
        </mxCell>
      </root>
    </mxGraphModel>
  </diagram>
</mxfile>
